<svg width="513" height="513" viewBox="0 0 513 513" fill="none" xmlns="http://www.w3.org/2000/svg">
<g clip-path="url(#clip0)">
<path d="M100.768 385.131L58.101 363.798C52.853 361.217 46.432 363.307 43.786 368.577L22.453 411.244C19.829 416.513 21.962 422.913 27.232 425.559C28.789 426.327 30.411 426.69 32.011 426.69C35.915 426.69 39.691 424.535 41.547 420.802L58.102 387.671L91.233 404.226C96.524 406.829 102.924 404.738 105.548 399.447C108.171 394.176 106.037 387.776 100.768 385.131Z" fill="#0D7DE3"/>
<path d="M160.075 469.355C105.291 469.184 70.2619 420.224 63.9469 371.968C63.1579 366.101 57.4399 361.92 51.9789 362.773C46.1119 363.541 42.0159 368.896 42.7629 374.741C50.2719 432.192 92.9599 490.474 159.968 490.688C159.989 490.688 159.989 490.688 160.011 490.688C165.899 490.688 170.678 485.909 170.699 480.043C170.72 474.176 165.941 469.376 160.075 469.355Z" fill="#0D7DE3"/>
<path d="M484.768 86.4C479.499 83.84 473.099 85.909 470.453 91.179L453.898 124.31L420.767 107.755C415.498 105.174 409.098 107.264 406.452 112.534C403.828 117.803 405.961 124.203 411.231 126.849L453.898 148.182C455.455 148.95 457.077 149.313 458.677 149.313C462.581 149.313 466.357 147.158 468.213 143.382L489.546 100.715C492.171 95.445 490.037 89.045 484.768 86.4Z" fill="#0D7DE3"/>
<path d="M469.259 137.259C461.75 79.808 419.062 21.526 352.054 21.312C352.033 21.312 352.033 21.312 352.011 21.312C346.144 21.312 341.366 26.091 341.344 31.957C341.323 37.824 346.101 42.624 351.968 42.645C406.752 42.816 441.781 91.776 448.096 140.032C448.8 145.408 453.387 149.312 458.656 149.312C459.147 149.312 459.595 149.291 460.043 149.227C465.909 148.459 470.005 143.104 469.259 137.259Z" fill="#0D7DE3"/>
<path d="M277.344 288.021C277.344 303.189 296.011 316.288 320.011 319.338V256.703C296.011 259.755 277.344 272.853 277.344 288.021Z" fill="#0D7DE3"/>
<path d="M341.344 342.037V404.672C365.365 401.621 384.011 388.501 384.011 373.355C384.011 358.187 365.344 345.088 341.344 342.037Z" fill="#0D7DE3"/>
<path d="M149.844 330.688C149.844 230.975 230.964 149.855 330.677 149.855C430.391 149.855 511.51 230.975 511.51 330.688C511.51 430.401 430.39 511.521 330.677 511.521C230.964 511.521 149.844 430.401 149.844 330.688ZM341.844 437.355V426.394C378.316 422.623 405.844 400.909 405.844 373.355C405.844 345.8 378.336 324.087 341.844 320.316V257.274C353.547 258.843 363.917 262.816 371.384 268.223C378.977 273.722 383.511 280.656 383.511 288.021C383.511 294.185 388.514 299.188 394.678 299.188C400.842 299.188 405.845 294.185 405.845 288.021C405.845 260.466 378.317 238.753 341.845 234.982V224.021C341.845 217.857 336.842 212.854 330.678 212.854C324.514 212.854 319.511 217.857 319.511 224.021V234.982C283.039 238.753 255.511 260.466 255.511 288.021C255.511 315.576 283.039 337.289 319.511 341.06V404.102C307.808 402.533 297.438 398.56 289.971 393.153C282.378 387.654 277.844 380.72 277.844 373.355C277.844 367.191 272.841 362.188 266.677 362.188C260.513 362.188 255.51 367.191 255.51 373.355C255.51 400.91 283.038 422.623 319.51 426.394V437.355C319.51 443.519 324.513 448.522 330.677 448.522C336.841 448.522 341.844 443.519 341.844 437.355Z" fill="#0D7DE3" stroke="black"/>
<path d="M316.896 128.704C302.304 55.424 237.536 0 160.011 0C71.776 0 0.0109863 71.765 0.0109863 160C0.0109863 237.525 55.414 302.293 128.715 316.885C130.358 292.8 136.31 269.909 145.632 248.853C144.8 250.794 143.776 252.608 142.987 254.549C109.622 249.173 85.344 228.373 85.344 202.666V192H74.677C68.789 192 64.01 187.221 64.01 181.333C64.01 175.445 68.789 170.666 74.677 170.666H85.344V149.333H74.677C68.789 149.333 64.01 144.554 64.01 138.666C64.01 132.778 68.789 128 74.677 128H85.344V117.333C85.344 87.424 118.133 64 160.011 64C201.889 64 234.678 87.424 234.678 117.333C234.678 123.221 229.899 128 224.011 128C218.123 128 213.344 123.221 213.344 117.333C213.344 99.989 188.917 85.333 160.011 85.333C131.105 85.333 106.678 99.989 106.678 117.333V128H181.345C187.233 128 192.012 132.779 192.012 138.667C192.012 144.555 187.233 149.334 181.345 149.334H106.678V170.667H181.345C187.233 170.667 192.012 175.446 192.012 181.334C192.012 182.294 191.713 183.126 191.479 184.022C224.672 152.512 268.384 131.989 316.896 128.704Z" fill="white"/>
<path d="M139.735 256.516C132.706 274.537 128.093 293.773 126.436 313.856C55.6567 298.432 2.51099 235.328 2.51099 160C2.51099 73.1457 73.1567 2.5 160.011 2.5C235.338 2.5 298.441 55.6646 313.867 126.424C267.983 130.177 226.479 149.172 194.13 178.175C192.714 172.431 187.525 168.167 181.345 168.167H109.178V151.834H181.345C188.614 151.834 194.512 145.936 194.512 138.667C194.512 131.398 188.614 125.5 181.345 125.5H109.178V117.333C109.178 109.913 114.435 102.586 123.791 96.9727C133.074 91.403 145.951 87.833 160.011 87.833C174.071 87.833 186.948 91.403 196.231 96.9727C205.587 102.586 210.844 109.913 210.844 117.333C210.844 124.602 216.742 130.5 224.011 130.5C231.28 130.5 237.178 124.602 237.178 117.333C237.178 101.386 228.424 87.361 214.502 77.4163C200.587 67.4769 181.394 61.5 160.011 61.5C138.628 61.5 119.435 67.4769 105.52 77.4163C91.598 87.361 82.844 101.386 82.844 117.333V125.5H74.677C67.4086 125.5 61.51 131.397 61.51 138.666C61.51 145.935 67.4083 151.833 74.677 151.833H82.844V168.166H74.677C67.4083 168.166 61.51 174.064 61.51 181.333C61.51 188.602 67.4083 194.5 74.677 194.5H82.844V202.666C82.844 229.383 107.226 250.338 139.735 256.516Z" stroke="black" stroke-opacity="0.58" stroke-width="5"/>
<path d="M184.032 191.488C183.157 191.701 182.304 192.021 181.344 192.021H106.677V202.688C106.677 218.496 127.008 231.915 152.501 234.219C151.029 236.907 149.92 239.808 148.597 242.582C157.749 223.723 169.76 206.528 184.032 191.488Z" fill="white"/>
<path d="M177.845 194.521C167.758 205.833 158.895 218.257 151.484 231.607C139.588 230.351 129.029 226.61 121.434 221.45C113.534 216.082 109.177 209.444 109.177 202.688V194.521H177.845Z" stroke="black" stroke-opacity="0.58" stroke-width="5"/>
</g>
<defs>
<clipPath id="clip0">
<rect width="512.021" height="512.021" fill="white"/>
</clipPath>
</defs>
</svg>
